<svg width="644" height="449" viewBox="0 0 644 449" fill="none" xmlns="http://www.w3.org/2000/svg">
<g clip-path="url(#clip0_33_24)">
<path d="M128.313 449C199.178 449 256.625 444.628 256.625 439.234C256.625 433.841 199.178 429.469 128.313 429.469C57.4476 429.469 0 433.841 0 439.234C0 444.628 57.4476 449 128.313 449Z" fill="#E6E6E6"/>
<path d="M98.0799 99.6252C120.41 90.1076 148.223 96.1378 175.385 100.323C175.638 95.2547 178.702 89.0863 175.492 85.5503C171.593 81.2544 171.952 76.7406 174.298 72.2009C180.298 60.592 171.702 48.2395 163.023 37.9686C161.067 35.6588 158.594 33.8439 155.807 32.6714C153.019 31.499 149.995 31.0019 146.979 31.2207L130.902 32.3715C126.989 32.6515 123.256 34.1222 120.2 36.5868C117.145 39.0513 114.913 42.3922 113.804 46.1623C109.965 51.3944 107.911 56.612 109.204 61.8024C103.454 65.7402 102.488 70.4936 105.072 75.8522C107.263 79.2261 107.24 82.5104 104.972 85.7037C101.995 89.775 99.7138 94.3146 98.2236 99.1364L98.0799 99.6252Z" fill="#2F2E41"/>
<path d="M628.74 388.153H173.621C169.574 388.153 165.692 386.542 162.83 383.674C159.968 380.806 158.361 376.917 158.361 372.861C323.341 353.647 485.221 353.647 644 372.861C644 376.917 642.392 380.806 639.53 383.674C636.668 386.542 632.787 388.153 628.74 388.153Z" fill="#2F2E41"/>
<path d="M644 373.761L158.361 372.861L214.645 277.959L214.914 277.509V68.3563C214.914 65.8177 215.412 63.3038 216.382 60.9584C217.351 58.6129 218.772 56.4818 220.564 54.6867C222.355 52.8915 224.482 51.4676 226.822 50.4962C229.163 49.5248 231.671 49.0249 234.205 49.0251H565.463C567.996 49.0249 570.505 49.5248 572.845 50.4962C575.186 51.4676 577.313 52.8915 579.104 54.6867C580.895 56.4818 582.316 58.6129 583.286 60.9584C584.255 63.3038 584.754 65.8177 584.754 68.3563V278.949L644 373.761Z" fill="#3F3D56"/>
<path d="M233.765 62.5183C232.099 62.5202 230.502 63.1842 229.324 64.3647C228.146 65.5452 227.483 67.1457 227.481 68.8151V259.518C227.483 261.188 228.146 262.788 229.324 263.969C230.502 265.149 232.099 265.813 233.765 265.815H568.596C570.262 265.813 571.859 265.149 573.037 263.969C574.215 262.788 574.877 261.188 574.879 259.518V68.8151C574.878 67.1457 574.215 65.5452 573.037 64.3648C571.859 63.1843 570.262 62.5203 568.596 62.5183H233.765Z" fill="white"/>
<path d="M235.168 291.003C234.653 291.003 234.149 291.152 233.716 291.43C233.282 291.708 232.937 292.105 232.721 292.573L215.378 330.354C215.19 330.765 215.107 331.217 215.138 331.669C215.17 332.12 215.314 332.557 215.557 332.938C215.801 333.319 216.136 333.632 216.532 333.85C216.929 334.067 217.373 334.181 217.825 334.181H582.535C582.994 334.181 583.445 334.063 583.846 333.839C584.247 333.615 584.584 333.292 584.826 332.901C585.067 332.509 585.204 332.063 585.225 331.603C585.246 331.144 585.149 330.686 584.943 330.275L566.092 292.494C565.87 292.045 565.526 291.667 565.101 291.404C564.675 291.14 564.184 291.001 563.684 291.003H235.168Z" fill="#2F2E41"/>
<path d="M399.834 59.3699C402.065 59.3699 403.873 57.5576 403.873 55.322C403.873 53.0863 402.065 51.274 399.834 51.274C397.603 51.274 395.794 53.0863 395.794 55.322C395.794 57.5576 397.603 59.3699 399.834 59.3699Z" fill="white"/>
<path d="M363.986 341.377C363.394 341.378 362.818 341.574 362.349 341.934C361.879 342.295 361.54 342.801 361.386 343.374L357.035 359.566C356.928 359.965 356.914 360.385 356.994 360.791C357.074 361.198 357.247 361.58 357.498 361.909C357.749 362.238 358.073 362.504 358.444 362.687C358.814 362.871 359.222 362.966 359.635 362.966H442.368C442.797 362.966 443.22 362.863 443.602 362.666C443.984 362.469 444.313 362.183 444.561 361.833C444.81 361.482 444.972 361.077 445.033 360.651C445.094 360.225 445.053 359.791 444.912 359.385L439.319 343.193C439.136 342.663 438.792 342.203 438.336 341.878C437.88 341.552 437.334 341.377 436.774 341.377H363.986Z" fill="#2F2E41"/>
<path d="M584.754 274.361V277.959H214.644L214.923 277.51V274.361H584.754Z" fill="#2F2E41"/>
<path d="M574.431 125.936C609.134 125.936 637.267 97.7444 637.267 62.9681C637.267 28.1918 609.134 0 574.431 0C539.727 0 511.594 28.1918 511.594 62.9681C511.594 97.7444 539.727 125.936 574.431 125.936Z" fill="#003366"/>
<path d="M600.463 90.4042H548.398C547.446 90.4033 546.533 90.0239 545.86 89.3493C545.187 88.6747 544.808 87.76 544.807 86.806V55.322C544.809 54.368 545.187 53.4534 545.86 52.7788C546.533 52.1042 547.446 51.7248 548.398 51.7238H600.463C601.415 51.7248 602.328 52.1042 603.001 52.7788C603.674 53.4534 604.053 54.368 604.054 55.322V86.806C604.053 87.76 603.674 88.6747 603.001 89.3493C602.328 90.0239 601.415 90.4033 600.463 90.4042ZM548.398 55.322V86.806H600.466L600.463 55.322L548.398 55.322Z" fill="white"/>
<path d="M590.589 55.3219H558.272V40.9292C558.272 30.5046 565.068 22.9384 574.431 22.9384C583.793 22.9384 590.589 30.5046 590.589 40.9292L590.589 55.3219ZM561.863 51.7238H586.998V40.9292C586.998 32.4551 581.83 26.5365 574.431 26.5365C567.031 26.5365 561.863 32.4552 561.863 40.9292L561.863 51.7238Z" fill="white"/>
<path d="M574.431 73.7626C576.414 73.7626 578.021 72.1516 578.021 70.1644C578.021 68.1772 576.414 66.5663 574.431 66.5663C572.447 66.5663 570.84 68.1772 570.84 70.1644C570.84 72.1516 572.447 73.7626 574.431 73.7626Z" fill="white"/>
<path d="M530.565 201.131H271.796C270.525 201.129 269.307 200.623 268.409 199.723C267.51 198.822 267.005 197.602 267.004 196.329V132.005C267.005 130.732 267.51 129.511 268.409 128.611C269.307 127.711 270.525 127.204 271.796 127.203H530.565C531.835 127.204 533.053 127.711 533.952 128.611C534.85 129.511 535.355 130.732 535.357 132.005V196.329C535.355 197.602 534.85 198.822 533.952 199.723C533.053 200.623 531.835 201.129 530.565 201.131ZM271.796 129.124C271.033 129.125 270.303 129.428 269.764 129.969C269.224 130.509 268.921 131.241 268.92 132.005V196.329C268.921 197.093 269.224 197.825 269.764 198.365C270.303 198.905 271.033 199.209 271.796 199.21H530.565C531.327 199.209 532.058 198.905 532.597 198.365C533.136 197.825 533.439 197.093 533.44 196.329V132.005C533.439 131.241 533.136 130.509 532.597 129.969C532.058 129.428 531.327 129.125 530.565 129.124L271.796 129.124Z" fill="#E6E6E6"/>
<path d="M312.003 181.26C322.784 181.26 331.523 172.502 331.523 161.699C331.523 150.896 322.784 142.138 312.003 142.138C301.222 142.138 292.483 150.896 292.483 161.699C292.483 172.502 301.222 181.26 312.003 181.26Z" fill="#E6E6E6"/>
<path d="M357.085 148.658C356.658 148.657 356.234 148.741 355.839 148.905C355.443 149.068 355.084 149.308 354.782 149.611C354.479 149.914 354.239 150.274 354.075 150.669C353.911 151.065 353.827 151.49 353.827 151.918C353.827 152.347 353.911 152.771 354.075 153.167C354.239 153.563 354.479 153.923 354.782 154.225C355.084 154.528 355.443 154.768 355.839 154.932C356.234 155.095 356.658 155.179 357.085 155.178H510.458C511.321 155.178 512.148 154.835 512.758 154.223C513.368 153.612 513.711 152.783 513.711 151.918C513.711 151.054 513.368 150.224 512.758 149.613C512.148 149.002 511.321 148.658 510.458 148.658H357.085Z" fill="#E6E6E6"/>
<path d="M357.085 168.219C356.223 168.219 355.395 168.562 354.785 169.174C354.175 169.785 353.832 170.614 353.832 171.479C353.832 172.344 354.175 173.173 354.785 173.784C355.395 174.396 356.223 174.739 357.085 174.739H423.082C423.945 174.739 424.772 174.396 425.382 173.784C425.993 173.173 426.335 172.344 426.335 171.479C426.335 170.614 425.993 169.785 425.382 169.174C424.772 168.562 423.945 168.219 423.082 168.219H357.085Z" fill="#E6E6E6"/>
<path d="M214.008 169.538L166.172 195.023L165.567 173.785C181.18 171.173 196.034 166.626 209.769 159.223L214.772 146.836C215.317 145.487 216.203 144.302 217.343 143.4C218.483 142.497 219.838 141.906 221.274 141.687C222.71 141.467 224.179 141.625 225.536 142.146C226.893 142.667 228.091 143.532 229.014 144.657C230.363 146.303 231.037 148.402 230.9 150.528C230.763 152.654 229.825 154.648 228.276 156.107L214.008 169.538Z" fill="#FFB8B8"/>
<path d="M97.1264 316.677C96.7774 315.394 96.7033 314.052 96.909 312.739C97.1146 311.426 97.5954 310.171 98.3196 309.057L108.828 292.897C111.313 289.075 115.127 286.314 119.529 285.15C123.931 283.986 128.607 284.503 132.651 286.599C128.235 294.132 128.85 300.74 134.176 306.483C125.908 310.527 118.267 315.748 111.489 321.982C110.252 322.827 108.831 323.364 107.344 323.547C105.858 323.731 104.349 323.556 102.944 323.037C101.539 322.518 100.278 321.67 99.2658 320.564C98.2539 319.457 97.5203 318.125 97.1264 316.677Z" fill="#2F2E41"/>
<path d="M216.186 295.547C214.596 298.203 212.352 300.404 209.668 301.94C206.984 303.477 203.952 304.296 200.861 304.319L131.052 304.849L128.025 287.253L158.906 278.151L132.869 258.127L161.328 224.755L213.019 273.033C216.04 275.854 218.003 279.63 218.579 283.728C219.156 287.826 218.311 291.998 216.186 295.547Z" fill="#2F2E41"/>
<path d="M120.153 415.889H103.804C89.1255 315.061 74.1838 213.951 118.337 176.212L170.411 184.707L163.75 229.002L134.686 262.375L120.153 415.889Z" fill="#2F2E41"/>
<path d="M134.525 438.73C133.245 439.08 131.906 439.154 130.595 438.948C129.284 438.742 128.032 438.26 126.921 437.535L109.169 435.144C105.355 432.653 102.6 428.832 101.438 424.421C100.276 420.01 100.791 415.323 102.883 411.271C110.4 415.696 116.995 415.079 122.725 409.742C126.775 417.934 133.446 417.435 139.817 424.337C140.661 425.577 141.197 427.001 141.38 428.49C141.563 429.98 141.389 431.492 140.871 432.9C140.353 434.308 139.507 435.572 138.403 436.586C137.299 437.6 135.97 438.335 134.525 438.73Z" fill="#2F2E41"/>
<path d="M158.906 108.86L128.63 101.579C133.659 91.2647 134.073 79.7882 131.658 67.5992L152.245 66.9924C152.89 82.1498 154.842 96.3106 158.906 108.86Z" fill="#FFB8B8"/>
<path d="M167.227 202.977C145.187 218.027 129.615 203.492 117.731 181.067C119.382 167.344 116.709 150.923 111.757 133.08C109.554 125.21 110.377 116.798 114.061 109.506C117.745 102.213 124.024 96.5704 131.658 93.6907L157.695 104.613C179.803 122.671 184.155 142.232 175.86 162.863L167.227 202.977Z" fill="#003366"/>
<path d="M103.804 124.03L79.5839 136.772L122.575 162.256L128.557 177.043C128.957 178.03 129.151 179.088 129.129 180.153C129.107 181.217 128.869 182.266 128.429 183.236C127.989 184.205 127.356 185.075 126.57 185.791C125.784 186.508 124.86 187.056 123.856 187.403C122.714 187.798 121.496 187.922 120.298 187.767C119.1 187.611 117.954 187.179 116.951 186.506C115.947 185.832 115.112 184.935 114.512 183.885C113.912 182.834 113.563 181.658 113.492 180.45L112.887 170.145L58.2455 152.075C56.4045 151.466 54.7259 150.446 53.3368 149.091C51.9477 147.735 50.8845 146.081 50.2279 144.253C49.2707 141.589 49.222 138.682 50.0893 135.987C50.9567 133.292 52.6912 130.961 55.0214 129.359L98.9603 99.1517L103.804 124.03Z" fill="#FFB8B8"/>
<path d="M128.025 126.457C117.923 122.021 108.738 126.839 97.1437 130.704L95.3272 98.5449C106.84 92.396 117.816 90.7382 128.025 95.511L128.025 126.457Z" fill="#003366"/>
<path d="M140.109 82.922C150.784 82.922 159.438 74.2497 159.438 63.5518C159.438 52.8539 150.784 44.1816 140.109 44.1816C129.433 44.1816 120.779 52.8539 120.779 63.5518C120.779 74.2497 129.433 82.922 140.109 82.922Z" fill="#FFB8B8"/>
<path d="M163.233 61.1078C144.095 62.9861 129.512 59.8496 120.192 50.9189V43.7268H161.609L163.233 61.1078Z" fill="#2F2E41"/>
</g>
<defs>
<clipPath id="clip0_33_24">
<rect width="644" height="449" fill="white"/>
</clipPath>
</defs>
</svg>
